Coordinates
version=1
nRows=26
nColumns=22
inDegrees=yes

Units are S.I. units (second, meters, Newtons, ...)
If the header above contains a line with 'inDegrees', this indicates whether rotational values are in degrees (yes) or radians (no).

endheader
time	pelvis_tilt	pelvis_list	pelvis_rotation	pelvis_tx	pelvis_ty	pelvis_tz	hip_flexion_r	hip_adduction_r	hip_rotation_r	knee_angle_r	ankle_angle_r	subtalar_angle_r	hip_flexion_l	hip_adduction_l	hip_rotation_l	knee_angle_l	ankle_angle_l	subtalar_angle_l	lumbar_extension	lumbar_bending	lumbar_rotation
      2.83000000	     -2.46704411	     -6.15862464	      9.23180105	     -0.25331810	      0.94297047	     -0.27885749	     29.83324294	      2.61169103	     -4.19463563	    -19.11711832	      0.63819893	      4.72614159	     -9.57734792	     -5.83990053	     14.82689576	    -13.43295682	     19.96846017	      0.22719125	     -1.87019165	      4.95988974	    -11.63167335
      2.84000000	     -2.46625929	     -6.29677533	      9.25133954	     -0.24423821	      0.94254754	     -0.27766257	     30.00919435	      2.90321534	     -4.22467936	    -20.13880490	     -0.23411141	      4.39235060	     -9.89357356	     -6.12489169	     14.91515590	    -13.82952089	     19.79044736	      0.89236226	     -1.76984878	      5.12936861	    -11.80958941
      2.85000000	     -2.47363655	     -6.47395172	      9.25605282	     -0.23504355	      0.94226267	     -0.27640612	     30.18535684	      3.21822234	     -4.34191723	    -21.17805700	     -0.95448981	      4.17340870	    -10.14645520	     -6.43780517	     14.99329941	    -14.32252820	     19.57867159	      1.55209162	     -1.64920242	      5.33779707	    -11.96573297
      2.86000000	     -2.48845391	     -6.65058969	      9.23546303	     -0.22573586	      0.94214312	     -0.27510597	     30.33283184	      3.52749110	     -4.49368009	    -22.19035382	     -1.48564863	      4.00942022	    -10.35259870	     -6.73349787	     15.05688228	    -14.89142080	     19.27718323	      2.28834656	     -1.51680692	      5.54367668	    -12.11151728
      2.87000000	     -2.50926227	     -6.82688412	      9.19330734	     -0.21632127	      0.94218804	     -0.27376284	     30.43762934	      3.83121903	     -4.68808301	    -23.15175435	     -1.80205645	      3.89485097	    -10.50489731	     -7.01075407	     15.10750665	    -15.54763579	     18.88380929	      3.07689902	     -1.37438416	      5.74688042	    -12.25375991
      2.88000000	     -2.52665115	     -7.00291041	      9.14166913	     -0.20681794	      0.94240045	     -0.27241560	     30.47744631	      4.12564768	     -4.93382714	    -24.03908747	     -1.90320150	      3.81401989	    -10.59428316	     -7.26686505	     15.15794650	    -16.31842533	     18.40339959	      3.89210514	     -1.23351378	      5.94921529	    -12.36862620
      2.89000000	     -2.53487606	     -7.18006095	      9.08840935	     -0.19719767	      0.94278640	     -0.27108064	     30.43084023	      4.42068704	     -5.19226958	    -24.83212683	     -1.77772601	      3.74753012	    -10.63074488	     -7.50788386	     15.20430252	    -17.19028914	     17.81442713	      4.74106977	     -1.09415639	      6.15386901	    -12.48374977
      2.90000000	     -2.51939516	     -7.35181699	      9.05003899	     -0.18747337	      0.94336451	     -0.26980108	     30.27390374	      4.71480334	     -5.43055695	    -25.51586034	     -1.48534174	      3.69383384	    -10.61506625	     -7.72904001	     15.25648603	    -18.17812826	     17.11147250	      5.62395888	     -0.97327155	      6.35739594	    -12.60878104
      2.91000000	     -2.47358540	     -7.51711547	      9.03198563	     -0.17764697	      0.94414494	     -0.26859393	     29.99395791	      5.01718700	     -5.61060832	    -26.07995969	     -1.05545406	      3.64858336	    -10.54884421	     -7.93060334	     15.31639811	    -19.28328578	     16.27778503	      6.55078688	     -0.87617634	      6.56045916	    -12.74321607
      2.92000000	     -2.39570486	     -7.66742416	      9.05540473	     -0.16777393	      0.94511943	     -0.26749389	     29.58894096	      5.31340406	     -5.73748455	    -26.51864236	     -0.53462004	      3.60846017	    -10.41019332	     -8.10385408	     15.40429751	    -20.53060908	     15.31474726	      7.47456130	     -0.80843729	      6.75424548	    -12.91673049
      2.93000000	     -2.31728995	     -7.78762580	      9.07276705	     -0.15786810	      0.94621863	     -0.26642679	     29.10862470	      5.60221227	     -5.79549871	    -26.86211638	      0.07966829	      3.55679712	    -10.18000795	     -8.22524650	     15.47232060	    -21.90627823	     14.22508228	      8.49147197	     -0.74287798	      6.91346029	    -13.05048876
      2.94000000	     -2.24896912	     -7.86756515	      9.08738108	     -0.14801691	      0.94740798	     -0.26539250	     28.57197072	      5.86402371	     -5.80512578	    -27.11178823	      0.72262957	      3.48987093	     -9.82180912	     -8.28103202	     15.51498347	    -23.44283328	     13.01757863	      9.51469321	     -0.67823191	      7.02657910	    -13.16401936
      2.95000000	     -2.19984464	     -7.90199962	      9.10400993	     -0.13827027	      0.94864691	     -0.26439391	     27.99834687	      6.08135090	     -5.79963138	    -27.27876802	      1.37968704	      3.40549315	     -9.31517313	     -8.26506261	     15.54256006	    -25.15082691	     11.72364850	     10.52588193	     -0.60876078	      7.08484504	    -13.25764692
      2.96000000	     -2.14765963	     -7.90814129	      9.08517949	     -0.12862868	      0.94992580	     -0.26336686	     27.37637395	      6.29030535	     -5.75952535	    -27.37347383	      2.02148559	      3.30898392	     -8.68671537	     -8.20356467	     15.47007791	    -27.03075907	     10.39542132	     11.55315276	     -0.56369356	      7.11061958	    -13.27722922
      2.97000000	     -2.11546968	     -7.87756921	      9.07634445	     -0.11915696	      0.95118778	     -0.26237606	     26.73935379	      6.45358465	     -5.72012665	    -27.40622479	      2.65473046	      3.20224109	     -7.89970484	     -8.08649124	     15.38748588	    -29.08459421	      9.06923048	     12.49741785	     -0.51681134	      7.08982303	    -13.29516549
      2.98000000	     -2.12040445	     -7.83209508	      9.07344423	     -0.10988625	      0.95237449	     -0.26143019	     26.11974072	      6.58626780	     -5.68950920	    -27.38664586	      3.24414973	      3.09552932	     -6.92828831	     -7.93722253	     15.26985992	    -31.31760118	      7.79830834	     13.23271539	     -0.44884412	      7.04818010	    -13.29263541
      2.99000000	     -2.10505872	     -7.79832966	      9.04881380	     -0.10076567	      0.95351113	     -0.26043878	     25.47058356	      6.74237593	     -5.65018435	    -27.33404075	      3.82303983	      2.98856812	     -5.85776099	     -7.81064733	     15.05693089	    -33.68638147	      6.64481241	     13.93124129	     -0.41999011	      7.01762550	    -13.23176491
      3.00000000	     -2.09608059	     -7.77450657	      9.02889982	     -0.09183200	      0.95454685	     -0.25944777	     24.82310481	      6.90029309	     -5.63184835	    -27.24803147	      4.39386381	      2.87894426	     -4.66245233	     -7.70784804	     14.79089092	    -36.16352889	      5.63958456	     14.52605371	     -0.40184495	      6.99097366	    -13.14370393
      3.01000000	     -2.08151433	     -7.82711224	      9.00312625	     -0.08306263	      0.95546935	     -0.25840308	     24.16345333	      7.14430822	     -5.60317566	    -27.09969782	      4.89174301	      2.78894766	     -3.36176834	     -7.72055856	     14.43300106	    -38.71069937	      4.81091498	     14.76604571	     -0.39311719	      7.04533420	    -13.02398355
      3.02000000	     -2.06817138	     -7.92039977	      8.97960991	     -0.07449134	      0.95625251	     -0.25731990	     23.52442334	      7.42874035	     -5.58033717	    -26.94755072	      5.38290830	      2.69567622	     -1.97084985	     -7.81138050	     14.03887802	    -41.27578131	      4.17476458	     14.85661055	     -0.39601073	      7.13702163	    -12.87448822
      3.03000000	     -2.06071534	     -8.06365859	      8.95538540	     -0.06609768	      0.95690301	     -0.25617071	     22.90325970	      7.76634090	     -5.56555221	    -26.77399511	      5.84750975	      2.59663159	     -0.50394502	     -8.00451727	     13.59813889	    -43.80218871	      3.75008340	     14.74155620	     -0.40120548	      7.27261267	    -12.70551830
      3.04000000	     -2.07232427	     -8.25223391	      8.93757194	     -0.05787450	      0.95742264	     -0.25498073	     22.31361789	      8.14606551	     -5.56451253	    -26.58352924	      6.29420428	      2.47223316	      1.03302449	     -8.28841629	     13.15319471	    -46.23738065	      3.50371034	     14.29136753	     -0.39030709	      7.44611286	    -12.51429024
      3.05000000	     -2.05607143	     -8.49710770	      8.90528993	     -0.04973617	      0.95791456	     -0.25369905	     21.67838582	      8.60598206	     -5.53596042	    -26.33034340	      6.68775790	      2.34858644	      2.55169669	     -8.69709063	     12.66761177	    -48.50698187	      3.43724389	     13.48622003	     -0.40818696	      7.67484212	    -12.29374065
      3.06000000	     -2.02286508	     -8.76667563	      8.85855707	     -0.04167157	      0.95839342	     -0.25235394	     21.00865206	      9.10777550	     -5.47767672	    -26.02996283	      7.04881891	      2.22045440	      4.03848769	     -9.18269652	     12.17664460	    -50.57056658	      3.51615125	     12.35784719	     -0.44614603	      7.92322891	    -12.04483969
      3.07000000	     -1.98024440	     -9.04244963	      8.79602032	     -0.03367016	      0.95887805	     -0.25096786	     20.30951740	      9.62942683	     -5.38461002	    -25.68764377	      7.38102913	      2.08715492	      5.48179738	     -9.71155029	     11.69957556	    -52.39789975	      3.71208329	     10.96040808	     -0.49562135	      8.17144608	    -11.76577458
      3.08000000	     -1.93561165	     -9.30794466	      8.72149105	     -0.02571488	      0.95937936	     -0.24957681	     19.58436303	     10.14653377	     -5.26369543	    -25.30497511	      7.68647286	      1.94935905	      6.87577023	    -10.25148650	     11.25110062	    -53.96995019	      3.99067106	      9.37183847	     -0.54696878	      8.40295696	    -11.46995819
